<?xml version="1.0" standalone="no"?>
<!DOCTYPE svg PUBLIC "-//W3C//DTD SVG 20010904//EN"
 "http://www.w3.org/TR/2001/REC-SVG-20010904/DTD/svg10.dtd">
<svg version="1.0" xmlns="http://www.w3.org/2000/svg"
 width="960.000000pt" height="960.000000pt" viewBox="0 0 960.000000 960.000000"
 preserveAspectRatio="xMidYMid meet">

<g transform="translate(0.000000,960.000000) scale(0.100000,-0.100000)"
fill="#000000" stroke="none">
<path d="M4540 9473 c-1004 -56 -1945 -427 -2740 -1082 -147 -121 -469 -442
-592 -591 -863 -1046 -1229 -2346 -1037 -3685 108 -753 422 -1508 882 -2120
254 -338 623 -705 958 -952 1140 -845 2592 -1127 3969 -772 816 211 1557 640
2155 1250 843 859 1306 1951 1342 3159 40 1383 -545 2719 -1597 3643 -855 751
-1970 1166 -3105 1155 -99 -1 -205 -3 -235 -5z m595 -137 c917 -143 1650 -808
1876 -1702 194 -771 -32 -1593 -596 -2159 -315 -317 -689 -524 -1115 -618
-167 -37 -248 -47 -500 -57 -236 -10 -314 -18 -470 -50 -598 -123 -1134 -498
-1465 -1025 -159 -252 -273 -564 -322 -877 -24 -157 -24 -499 0 -656 105 -673
478 -1243 1053 -1607 240 -152 568 -274 856 -319 126 -19 52 -20 -127 -1 -903
95 -1755 456 -2455 1041 -134 112 -374 347 -503 494 -915 1042 -1303 2454
-1051 3830 223 1218 944 2300 1986 2984 652 427 1385 675 2178 736 164 12 535
4 655 -14z m-210 -6231 c270 -57 475 -309 475 -585 0 -276 -205 -528 -475
-585 -204 -43 -397 16 -546 164 -238 238 -238 604 0 842 149 149 342 207 546
164z"/>
<path d="M4670 7664 c-266 -57 -470 -311 -470 -584 0 -324 276 -600 600 -600
276 0 528 205 585 475 43 204 -16 397 -164 546 -149 149 -347 207 -551 163z"/>
</g>
</svg>
